{
    "asset" : {
        "generator" : "Khronos glTF Blender I/O v1.7.33",
        "version" : "2.0"
    },
    "scene" : 0,
    "scenes" : [
        {
            "name" : "Scene",
            "nodes" : [
                0
            ]
        }
    ],
    "nodes" : [
        {
            "mesh" : 0,
            "name" : "Cube.011",
            "scale" : [
                0.057128261774778366,
                0.05768947675824165,
                0.042300086468458176
            ]
        }
    ],
    "materials" : [
        {
            "doubleSided" : true,
            "name" : "Material.005",
            "pbrMetallicRoughness" : {
                "baseColorFactor" : [
                    0,
                    0,
                    0,
                    1
                ],
                "metallicFactor" : 0,
                "roughnessFactor" : 0.5
            }
        },
        {
            "doubleSided" : true,
            "name" : "Material",
            "pbrMetallicRoughness" : {
                "metallicFactor" : 0,
                "roughnessFactor" : 0.5
            }
        }
    ],
    "meshes" : [
        {
            "name" : "Cube.014",
            "primitives" : [
                {
                    "attributes" : {
                        "POSITION" : 0,
                        "NORMAL" : 1,
                        "TANGENT" : 2,
                        "TEXCOORD_0" : 3
                    },
                    "indices" : 4,
                    "material" : 0
                },
                {
                    "attributes" : {
                        "POSITION" : 5,
                        "NORMAL" : 6,
                        "TANGENT" : 7,
                        "TEXCOORD_0" : 8
                    },
                    "indices" : 9,
                    "material" : 1
                }
            ]
        }
    ],
    "accessors" : [
        {
            "bufferView" : 0,
            "componentType" : 5126,
            "count" : 216,
            "max" : [
                8.26698112487793,
                2.9105567932128906,
                1
            ],
            "min" : [
                -9.012669563293457,
                -3.6163599491119385,
                -1
            ],
            "type" : "VEC3"
        },
        {
            "bufferView" : 1,
            "componentType" : 5126,
            "count" : 216,
            "type" : "VEC3"
        },
        {
            "bufferView" : 2,
            "componentType" : 5126,
            "count" : 216,
            "type" : "VEC4"
        },
        {
            "bufferView" : 3,
            "componentType" : 5126,
            "count" : 216,
            "type" : "VEC2"
        },
        {
            "bufferView" : 4,
            "componentType" : 5123,
            "count" : 324,
            "type" : "SCALAR"
        },
        {
            "bufferView" : 5,
            "componentType" : 5126,
            "count" : 528,
            "max" : [
                7.993234157562256,
                2.6669116020202637,
                1.0232130289077759
            ],
            "min" : [
                -8.758682250976562,
                -3.3078060150146484,
                -1.0232129096984863
            ],
            "type" : "VEC3"
        },
        {
            "bufferView" : 6,
            "componentType" : 5126,
            "count" : 528,
            "type" : "VEC3"
        },
        {
            "bufferView" : 7,
            "componentType" : 5126,
            "count" : 528,
            "type" : "VEC4"
        },
        {
            "bufferView" : 8,
            "componentType" : 5126,
            "count" : 528,
            "type" : "VEC2"
        },
        {
            "bufferView" : 9,
            "componentType" : 5123,
            "count" : 684,
            "type" : "SCALAR"
        }
    ],
    "bufferViews" : [
        {
            "buffer" : 0,
            "byteLength" : 2592,
            "byteOffset" : 0
        },
        {
            "buffer" : 0,
            "byteLength" : 2592,
            "byteOffset" : 2592
        },
        {
            "buffer" : 0,
            "byteLength" : 3456,
            "byteOffset" : 5184
        },
        {
            "buffer" : 0,
            "byteLength" : 1728,
            "byteOffset" : 8640
        },
        {
            "buffer" : 0,
            "byteLength" : 648,
            "byteOffset" : 10368
        },
        {
            "buffer" : 0,
            "byteLength" : 6336,
            "byteOffset" : 11016
        },
        {
            "buffer" : 0,
            "byteLength" : 6336,
            "byteOffset" : 17352
        },
        {
            "buffer" : 0,
            "byteLength" : 8448,
            "byteOffset" : 23688
        },
        {
            "buffer" : 0,
            "byteLength" : 4224,
            "byteOffset" : 32136
        },
        {
            "buffer" : 0,
            "byteLength" : 1368,
            "byteOffset" : 36360
        }
    ],
    "buffers" : [
        {
            "byteLength" : 37728,
            "uri" : "tdc_logo.bin"
        }
    ]
}
