{
    "asset" : {
        "generator" : "Khronos glTF Blender I/O v1.7.33",
        "version" : "2.0"
    },
    "scene" : 0,
    "scenes" : [
        {
            "name" : "Scene",
            "nodes" : [
                0,
                1
            ]
        }
    ],
    "nodes" : [
        {
            "mesh" : 0,
            "name" : "Plane",
            "rotation" : [
                0,
                0.3826834261417389,
                0,
                0.9238795638084412
            ],
            "scale" : [
                14.093652725219727,
                14.093652725219727,
                14.093652725219727
            ]
        },
        {
            "mesh" : 1,
            "name" : "Plane.002",
            "rotation" : [
                0,
                0.3826834261417389,
                0,
                0.9238795638084412
            ],
            "scale" : [
                14.093652725219727,
                14.093652725219727,
                14.093652725219727
            ],
            "translation" : [
                0,
                6.715496063232422,
                -0.008962636813521385
            ]
        }
    ],
    "materials" : [
        {
            "doubleSided" : true,
            "emissiveFactor" : [
                1,
                0.45078630634478145,
                0
            ],
            "name" : "dATA",
            "pbrMetallicRoughness" : {}
        },
        {
            "doubleSided" : true,
            "name" : "Base",
            "pbrMetallicRoughness" : {
                "baseColorFactor" : [
                    0,
                    0,
                    0,
                    1
                ],
                "metallicFactor" : 0,
                "roughnessFactor" : 0.5
            }
        }
    ],
    "meshes" : [
        {
            "name" : "Plane",
            "primitives" : [
                {
                    "attributes" : {
                        "POSITION" : 0,
                        "NORMAL" : 1,
                        "TEXCOORD_0" : 2
                    },
                    "indices" : 3,
                    "material" : 0
                },
                {
                    "attributes" : {
                        "POSITION" : 4,
                        "NORMAL" : 5,
                        "TEXCOORD_0" : 6
                    },
                    "indices" : 7,
                    "material" : 1
                }
            ]
        },
        {
            "name" : "Plane.002",
            "primitives" : [
                {
                    "attributes" : {
                        "POSITION" : 8,
                        "NORMAL" : 9,
                        "TEXCOORD_0" : 10
                    },
                    "indices" : 11,
                    "material" : 1
                }
            ]
        }
    ],
    "accessors" : [
        {
            "bufferView" : 0,
            "componentType" : 5126,
            "count" : 4078,
            "max" : [
                0.16342172026634216,
                0.4764907956123352,
                0.16288456320762634
            ],
            "min" : [
                -0.16342172026634216,
                0.1292678266763687,
                -0.16342175006866455
            ],
            "type" : "VEC3"
        },
        {
            "bufferView" : 1,
            "componentType" : 5126,
            "count" : 4078,
            "type" : "VEC3"
        },
        {
            "bufferView" : 2,
            "componentType" : 5126,
            "count" : 4078,
            "type" : "VEC2"
        },
        {
            "bufferView" : 3,
            "componentType" : 5123,
            "count" : 6108,
            "type" : "SCALAR"
        },
        {
            "bufferView" : 4,
            "componentType" : 5126,
            "count" : 155174,
            "max" : [
                1,
                0.8024390935897827,
                1
            ],
            "min" : [
                -1,
                0,
                -1
            ],
            "type" : "VEC3"
        },
        {
            "bufferView" : 5,
            "componentType" : 5126,
            "count" : 155174,
            "type" : "VEC3"
        },
        {
            "bufferView" : 6,
            "componentType" : 5126,
            "count" : 155174,
            "type" : "VEC2"
        },
        {
            "bufferView" : 7,
            "componentType" : 5125,
            "count" : 335640,
            "type" : "SCALAR"
        },
        {
            "bufferView" : 8,
            "componentType" : 5126,
            "count" : 12,
            "max" : [
                0.08640534430742264,
                -2.9802322387695312e-08,
                0.08730465918779373
            ],
            "min" : [
                -0.08730465918779373,
                -2.9802322387695312e-08,
                -0.08640533685684204
            ],
            "type" : "VEC3"
        },
        {
            "bufferView" : 9,
            "componentType" : 5126,
            "count" : 12,
            "type" : "VEC3"
        },
        {
            "bufferView" : 10,
            "componentType" : 5126,
            "count" : 12,
            "type" : "VEC2"
        },
        {
            "bufferView" : 11,
            "componentType" : 5123,
            "count" : 24,
            "type" : "SCALAR"
        }
    ],
    "bufferViews" : [
        {
            "buffer" : 0,
            "byteLength" : 48936,
            "byteOffset" : 0
        },
        {
            "buffer" : 0,
            "byteLength" : 48936,
            "byteOffset" : 48936
        },
        {
            "buffer" : 0,
            "byteLength" : 32624,
            "byteOffset" : 97872
        },
        {
            "buffer" : 0,
            "byteLength" : 12216,
            "byteOffset" : 130496
        },
        {
            "buffer" : 0,
            "byteLength" : 1862088,
            "byteOffset" : 142712
        },
        {
            "buffer" : 0,
            "byteLength" : 1862088,
            "byteOffset" : 2004800
        },
        {
            "buffer" : 0,
            "byteLength" : 1241392,
            "byteOffset" : 3866888
        },
        {
            "buffer" : 0,
            "byteLength" : 1342560,
            "byteOffset" : 5108280
        },
        {
            "buffer" : 0,
            "byteLength" : 144,
            "byteOffset" : 6450840
        },
        {
            "buffer" : 0,
            "byteLength" : 144,
            "byteOffset" : 6450984
        },
        {
            "buffer" : 0,
            "byteLength" : 96,
            "byteOffset" : 6451128
        },
        {
            "buffer" : 0,
            "byteLength" : 48,
            "byteOffset" : 6451224
        }
    ],
    "buffers" : [
        {
            "byteLength" : 6451272,
            "uri" : "island.bin"
        }
    ]
}
